<svg xmlns="http://www.w3.org/2000/svg" xmlns:xlink="http://www.w3.org/1999/xlink" width="500" zoomAndPan="magnify" viewBox="0 0 375 374.999991" height="500" preserveAspectRatio="xMidYMid meet" version="1.0"><defs><g/></defs><g fill="#333333" fill-opacity="1"><g transform="translate(3.610477, 202.254473)"><g><path d="M 2.699219 -57.1875 L 2.699219 -18.476562 C 2.699219 -5.933594 7.417969 0 16.320312 0 C 19.960938 0 24.816406 -0.945312 27.917969 -4.585938 L 27.917969 -5.664062 C 24.953125 -3.371094 19.421875 -1.617188 16.722656 -5.394531 C 14.433594 -8.496094 14.566406 -14.835938 14.566406 -18.207031 L 14.566406 -57.1875 L 26.570312 -57.1875 L 26.570312 -59.074219 L 14.566406 -59.074219 L 14.566406 -78.226562 L 12.679688 -78.226562 C 11.734375 -68.921875 3.910156 -59.074219 -3.910156 -59.074219 L -3.910156 -57.1875 Z M 2.699219 -57.1875 "/></g></g></g><g fill="#333333" fill-opacity="1"><g transform="translate(43.128473, 202.254473)"><g><path d="M 57.320312 -23.601562 C 55.839844 -15.78125 49.230469 -9.035156 41.542969 -7.417969 C 31.5625 -5.125 20.636719 -10.65625 14.703125 -19.558594 C 9.035156 -27.917969 6.878906 -37.089844 8.496094 -44.105469 C 9.304688 -41.40625 10.65625 -38.980469 12.273438 -36.6875 C 17.667969 -29.269531 25.625 -23.199219 34.527344 -21.714844 C 45.859375 -19.828125 57.59375 -25.222656 56.242188 -38.304688 C 55.839844 -43.699219 52.734375 -48.554688 48.554688 -52.0625 C 43.429688 -56.378906 36.820312 -59.074219 29.539062 -59.074219 C 13.21875 -59.074219 0 -45.859375 0 -29.539062 C 0 -13.082031 13.351562 0 29.539062 0 C 43.835938 0 56.242188 -10.117188 59.074219 -23.601562 Z M 13.890625 -52.734375 C 19.691406 -56.648438 30.078125 -56.917969 37.628906 -50.984375 C 53.140625 -38.84375 42.214844 -19.289062 21.984375 -30.75 C 15.914062 -34.125 11.328125 -39.652344 9.441406 -47.339844 C 10.519531 -49.5 12.003906 -51.386719 13.890625 -52.734375 Z M 13.890625 -52.734375 "/></g></g></g><g fill="#333333" fill-opacity="1"><g transform="translate(113.952464, 202.254473)"><g/></g></g><g fill="#333333" fill-opacity="1"><g transform="translate(147.536015, 202.254473)"><g/></g></g><g fill="#333333" fill-opacity="1"><g transform="translate(181.16661, 202.254473)"><g><path d="M 57.320312 -23.601562 C 55.839844 -15.78125 49.230469 -9.035156 41.542969 -7.417969 C 31.5625 -5.125 20.636719 -10.65625 14.703125 -19.558594 C 9.035156 -27.917969 6.878906 -37.089844 8.496094 -44.105469 C 9.304688 -41.40625 10.65625 -38.980469 12.273438 -36.6875 C 17.667969 -29.269531 25.625 -23.199219 34.527344 -21.714844 C 45.859375 -19.828125 57.59375 -25.222656 56.242188 -38.304688 C 55.839844 -43.699219 52.734375 -48.554688 48.554688 -52.0625 C 43.429688 -56.378906 36.820312 -59.074219 29.539062 -59.074219 C 13.21875 -59.074219 0 -45.859375 0 -29.539062 C 0 -13.082031 13.351562 0 29.539062 0 C 43.835938 0 56.242188 -10.117188 59.074219 -23.601562 Z M 13.890625 -52.734375 C 19.691406 -56.648438 30.078125 -56.917969 37.628906 -50.984375 C 53.140625 -38.84375 42.214844 -19.289062 21.984375 -30.75 C 15.914062 -34.125 11.328125 -39.652344 9.441406 -47.339844 C 10.519531 -49.5 12.003906 -51.386719 13.890625 -52.734375 Z M 13.890625 -52.734375 "/></g></g></g><g fill="#333333" fill-opacity="1"><g transform="translate(251.975291, 202.254473)"><g><path d="M 15.105469 -2.15625 L 45.859375 -48.421875 C 47.878906 -51.253906 52.195312 -57.1875 54.355469 -59.074219 L 1.214844 -59.074219 L 1.214844 -53.007812 C 1.214844 -53.007812 13.890625 -56.917969 21.851562 -56.917969 L 37.496094 -56.917969 L 5.125 -8.363281 C 2.15625 -4.316406 -1.214844 -0.40625 -1.753906 0 L 51.523438 0 L 51.523438 -6.070312 C 51.523438 -6.070312 38.84375 -2.15625 30.75 -2.15625 Z M 15.105469 -2.15625 "/></g></g></g><g fill="#333333" fill-opacity="1"><g transform="translate(317.928534, 202.254473)"><g><path d="M 43.160156 -10.386719 L 44.644531 0 L 57.59375 0 C 56.378906 -2.832031 55.433594 -7.6875 54.894531 -11.328125 L 53.140625 -23.332031 C 48.554688 -17.265625 40.191406 -7.824219 29.539062 -4.855469 C 21.984375 -2.832031 11.867188 -4.855469 11.867188 -14.160156 C 11.867188 -27.785156 27.917969 -30.210938 38.980469 -31.425781 C 47.207031 -32.234375 57.726562 -34.125 57.726562 -43.835938 C 57.726562 -57.726562 40.191406 -59.074219 30.480469 -59.074219 C 18.882812 -59.074219 7.824219 -56.511719 0 -52.871094 L 3.238281 -46.398438 C 12.140625 -53.140625 21.578125 -58.132812 32.503906 -56.917969 C 39.113281 -56.242188 45.046875 -52.601562 45.859375 -45.316406 C 46.9375 -37.226562 38.980469 -33.179688 32.101562 -32.234375 C 24.546875 -31.292969 16.453125 -31.832031 9.574219 -28.457031 C 3.910156 -25.625 -0.136719 -20.636719 0 -14.027344 C 0 -4.179688 9.847656 0 18.34375 0 C 27.515625 0 34.796875 -3.777344 43.160156 -10.386719 Z M 43.160156 -10.386719 "/></g></g></g><g fill="#333333" fill-opacity="1"><g transform="translate(116.693234, 202.335623)"><g><path d="M 9.722656 -9.550781 C 9.722656 -26.21875 9.808594 -42.886719 9.808594 -59.554688 L 22.398438 -59.554688 C 32.207031 -59.554688 39.589844 -56.777344 39.589844 -45.40625 C 39.589844 -33.769531 31.253906 -32.902344 23.007812 -28.5625 C 19.1875 -26.566406 15.886719 -24.046875 15.625 -20.316406 C 16.0625 -21.617188 16.929688 -22.917969 17.882812 -23.960938 C 20.316406 -26.390625 23.613281 -26.824219 25.523438 -23.527344 L 36.984375 -3.300781 C 38.199219 -1.128906 39.242188 0 41.933594 0 L 49.917969 0 C 48.269531 -1.824219 44.796875 -7.554688 43.148438 -10.503906 L 34.8125 -25.175781 C 33.511719 -27.519531 32.730469 -27.78125 30.125 -27.78125 L 25.351562 -27.78125 C 28.390625 -28.734375 31.6875 -29.429688 34.550781 -30.210938 C 42.367188 -32.296875 49.050781 -35.679688 49.050781 -45.40625 C 49.050781 -55.824219 40.457031 -60.769531 30.820312 -60.769531 L 0 -60.769531 C 0 -60.769531 0.867188 -56.34375 0.867188 -51.222656 L 0.867188 -9.550781 C 0.867188 -4.425781 0 0 0 0 L 10.589844 0 C 10.589844 0 9.722656 -4.425781 9.722656 -9.550781 Z M 9.722656 -9.550781 "/></g></g></g></svg>