<svg xmlns="http://www.w3.org/2000/svg" xmlns:xlink="http://www.w3.org/1999/xlink" width="1366" zoomAndPan="magnify" viewBox="0 0 1024.5 576" height="768" preserveAspectRatio="xMidYMid meet" version="1.0"><defs><g/><clipPath id="61f0942cc7"><path d="M 221.699219 223 L 271 223 L 271 346 L 221.699219 346 Z M 221.699219 223 " clip-rule="nonzero"/></clipPath><clipPath id="a7e399740c"><path d="M 713 253 L 802.664062 253 L 802.664062 346 L 713 346 Z M 713 253 " clip-rule="nonzero"/></clipPath></defs><g clip-path="url(#61f0942cc7)"><path fill="#454544" d="M 231.464844 256.546875 L 231.464844 316.480469 C 231.464844 335.902344 238.773438 345.089844 252.554688 345.089844 C 258.191406 345.089844 265.710938 343.625 270.511719 337.988281 L 270.511719 336.320312 C 265.921875 339.871094 257.359375 342.585938 253.179688 336.738281 C 249.636719 331.933594 249.839844 322.117188 249.839844 316.898438 L 249.839844 256.546875 L 268.425781 256.546875 L 268.425781 253.625 L 249.839844 253.625 L 249.839844 223.972656 L 246.917969 223.972656 C 245.457031 238.378906 233.339844 253.625 221.234375 253.625 L 221.234375 256.546875 Z M 231.464844 256.546875 " fill-opacity="1" fill-rule="nonzero"/></g><path fill="#454544" d="M 377.21875 308.546875 C 374.929688 320.65625 364.695312 331.101562 352.792969 333.605469 C 337.339844 337.152344 320.421875 328.589844 311.238281 314.808594 C 302.460938 301.863281 299.121094 287.664062 301.625 276.800781 C 302.878906 280.980469 304.972656 284.734375 307.476562 288.285156 C 315.828125 299.773438 328.148438 309.171875 341.929688 311.46875 C 359.476562 314.390625 377.644531 306.039062 375.550781 285.78125 C 374.929688 277.429688 370.121094 269.914062 363.648438 264.480469 C 355.714844 257.796875 345.480469 253.625 334.207031 253.625 C 308.9375 253.625 288.472656 274.085938 288.472656 299.355469 C 288.472656 324.835938 309.144531 345.089844 334.207031 345.089844 C 356.34375 345.089844 375.550781 329.425781 379.9375 308.546875 Z M 309.980469 263.441406 C 318.960938 257.382812 335.042969 256.964844 346.730469 266.152344 C 370.75 284.949219 353.832031 315.222656 322.511719 297.480469 C 313.113281 292.253906 306.011719 283.695312 303.089844 271.792969 C 304.757812 268.449219 307.058594 265.527344 309.980469 263.441406 Z M 309.980469 263.441406 " fill-opacity="1" fill-rule="nonzero"/><path fill="#454544" d="M 590.941406 308.546875 C 588.648438 320.65625 578.417969 331.101562 566.515625 333.605469 C 551.0625 337.152344 534.144531 328.589844 524.960938 314.808594 C 516.183594 301.863281 512.84375 287.664062 515.347656 276.800781 C 516.601562 280.980469 518.695312 284.734375 521.199219 288.285156 C 529.550781 299.773438 541.871094 309.171875 555.652344 311.46875 C 573.199219 314.390625 591.367188 306.039062 589.273438 285.78125 C 588.648438 277.429688 583.84375 269.914062 577.371094 264.480469 C 569.4375 257.796875 559.203125 253.625 547.929688 253.625 C 522.660156 253.625 502.195312 274.085938 502.195312 299.355469 C 502.195312 324.835938 522.867188 345.089844 547.929688 345.089844 C 570.066406 345.089844 589.273438 329.425781 593.65625 308.546875 Z M 523.703125 263.441406 C 532.683594 257.382812 548.765625 256.964844 560.453125 266.152344 C 584.472656 284.949219 567.554688 315.222656 536.234375 297.480469 C 526.835938 292.253906 519.734375 283.695312 516.8125 271.792969 C 518.480469 268.449219 520.78125 265.527344 523.703125 263.441406 Z M 523.703125 263.441406 " fill-opacity="1" fill-rule="nonzero"/><path fill="#454544" d="M 635.210938 341.75 L 682.828125 270.117188 C 685.953125 265.734375 692.636719 256.546875 695.980469 253.625 L 613.707031 253.625 L 613.707031 263.019531 C 613.707031 263.019531 633.332031 256.964844 645.65625 256.964844 L 669.878906 256.964844 L 619.761719 332.140625 C 615.164062 338.40625 609.945312 344.460938 609.109375 345.089844 L 691.597656 345.089844 L 691.597656 335.691406 C 691.597656 335.691406 671.964844 341.75 659.433594 341.75 Z M 635.210938 341.75 " fill-opacity="1" fill-rule="nonzero"/><g clip-path="url(#a7e399740c)"><path fill="#454544" d="M 780.765625 329.007812 L 783.0625 345.089844 L 803.109375 345.089844 C 801.230469 340.703125 799.765625 333.1875 798.933594 327.550781 L 796.214844 308.964844 C 789.117188 318.355469 776.167969 332.976562 759.675781 337.570312 C 747.976562 340.703125 732.3125 337.570312 732.3125 323.164062 C 732.3125 302.070312 757.164062 298.3125 774.292969 296.433594 C 787.03125 295.179688 803.316406 292.253906 803.316406 277.21875 C 803.316406 255.710938 776.167969 253.625 761.132812 253.625 C 743.175781 253.625 726.054688 257.59375 713.941406 263.230469 L 718.953125 273.25 C 732.738281 262.8125 747.347656 255.082031 764.265625 256.964844 C 774.5 258.011719 783.683594 263.648438 784.941406 274.925781 C 786.613281 287.453125 774.292969 293.71875 763.640625 295.179688 C 751.945312 296.636719 739.414062 295.804688 728.761719 301.03125 C 719.992188 305.414062 713.726562 313.136719 713.941406 323.371094 C 713.941406 338.617188 729.1875 345.089844 742.339844 345.089844 C 756.542969 345.089844 767.816406 339.242188 780.765625 329.007812 Z M 780.765625 329.007812 " fill-opacity="1" fill-rule="nonzero"/></g><path fill="#454544" d="M 417.425781 330.429688 C 417.425781 304.621094 417.558594 278.816406 417.558594 253.007812 L 437.050781 253.007812 C 452.238281 253.007812 463.667969 257.308594 463.667969 274.914062 C 463.667969 292.929688 450.761719 294.273438 437.992188 300.992188 C 432.078125 304.082031 426.96875 307.984375 426.5625 313.761719 C 427.242188 311.746094 428.582031 309.734375 430.058594 308.117188 C 433.828125 304.355469 438.929688 303.683594 441.886719 308.789062 L 459.632812 340.105469 C 461.515625 343.46875 463.128906 345.214844 467.296875 345.214844 L 479.65625 345.214844 C 477.105469 342.390625 471.730469 333.519531 469.175781 328.953125 L 456.269531 306.238281 C 454.257812 302.609375 453.046875 302.203125 449.011719 302.203125 L 441.621094 302.203125 C 446.328125 300.726562 451.433594 299.652344 455.867188 298.441406 C 467.96875 295.210938 478.316406 289.972656 478.316406 274.914062 C 478.316406 258.785156 465.011719 251.128906 450.089844 251.128906 L 402.371094 251.128906 C 402.371094 251.128906 403.714844 257.980469 403.714844 265.910156 L 403.714844 330.429688 C 403.714844 338.363281 402.371094 345.214844 402.371094 345.214844 L 418.765625 345.214844 C 418.765625 345.214844 417.425781 338.363281 417.425781 330.429688 Z M 417.425781 330.429688 " fill-opacity="1" fill-rule="nonzero"/><g fill="#454544" fill-opacity="1"><g transform="translate(408.613617, 195.838877)"><g><path d="M 26.296875 0 L 20.421875 0 L 20.421875 -12 L 9.40625 -12 L 9.40625 0 L 3.5 0 L 3.5 -27.8125 L 9.40625 -27.8125 L 9.40625 -16.921875 L 20.421875 -16.921875 L 20.421875 -27.8125 L 26.296875 -27.8125 Z M 26.296875 0 "/></g></g></g><g fill="#454544" fill-opacity="1"><g transform="translate(438.430435, 195.838877)"><g><path d="M 11.859375 -17.546875 C 10.628906 -17.546875 9.664062 -17.15625 8.96875 -16.375 C 8.269531 -15.59375 7.867188 -14.484375 7.765625 -13.046875 L 15.90625 -13.046875 C 15.882812 -14.484375 15.507812 -15.59375 14.78125 -16.375 C 14.0625 -17.15625 13.085938 -17.546875 11.859375 -17.546875 Z M 12.671875 0.375 C 9.242188 0.375 6.566406 -0.566406 4.640625 -2.453125 C 2.710938 -4.347656 1.75 -7.023438 1.75 -10.484375 C 1.75 -14.046875 2.640625 -16.800781 4.421875 -18.75 C 6.203125 -20.695312 8.664062 -21.671875 11.8125 -21.671875 C 14.820312 -21.671875 17.160156 -20.8125 18.828125 -19.09375 C 20.503906 -17.382812 21.34375 -15.019531 21.34375 -12 L 21.34375 -9.1875 L 7.625 -9.1875 C 7.6875 -7.539062 8.175781 -6.253906 9.09375 -5.328125 C 10.007812 -4.398438 11.289062 -3.9375 12.9375 -3.9375 C 14.21875 -3.9375 15.425781 -4.066406 16.5625 -4.328125 C 17.707031 -4.597656 18.90625 -5.023438 20.15625 -5.609375 L 20.15625 -1.125 C 19.132812 -0.613281 18.046875 -0.238281 16.890625 0 C 15.742188 0.25 14.335938 0.375 12.671875 0.375 Z M 12.671875 0.375 "/></g></g></g><g fill="#454544" fill-opacity="1"><g transform="translate(461.454266, 195.838877)"><g><path d="M 8.84375 0 L 3.046875 0 L 3.046875 -29.609375 L 8.84375 -29.609375 Z M 8.84375 0 "/></g></g></g><g fill="#454544" fill-opacity="1"><g transform="translate(473.346747, 195.838877)"><g><path d="M 8.84375 0 L 3.046875 0 L 3.046875 -29.609375 L 8.84375 -29.609375 Z M 8.84375 0 "/></g></g></g><g fill="#454544" fill-opacity="1"><g transform="translate(485.239227, 195.838877)"><g><path d="M 7.671875 -10.671875 C 7.671875 -8.566406 8.015625 -6.972656 8.703125 -5.890625 C 9.398438 -4.816406 10.523438 -4.28125 12.078125 -4.28125 C 13.628906 -4.28125 14.742188 -4.816406 15.421875 -5.890625 C 16.097656 -6.960938 16.4375 -8.554688 16.4375 -10.671875 C 16.4375 -12.773438 16.09375 -14.351562 15.40625 -15.40625 C 14.726562 -16.457031 13.609375 -16.984375 12.046875 -16.984375 C 10.492188 -16.984375 9.375 -16.460938 8.6875 -15.421875 C 8.007812 -14.378906 7.671875 -12.796875 7.671875 -10.671875 Z M 22.375 -10.671875 C 22.375 -7.210938 21.457031 -4.503906 19.625 -2.546875 C 17.800781 -0.597656 15.257812 0.375 12 0.375 C 9.957031 0.375 8.15625 -0.0664062 6.59375 -0.953125 C 5.039062 -1.847656 3.84375 -3.132812 3 -4.8125 C 2.164062 -6.488281 1.75 -8.441406 1.75 -10.671875 C 1.75 -14.148438 2.65625 -16.851562 4.46875 -18.78125 C 6.28125 -20.707031 8.832031 -21.671875 12.125 -21.671875 C 14.164062 -21.671875 15.960938 -21.226562 17.515625 -20.34375 C 19.078125 -19.457031 20.273438 -18.179688 21.109375 -16.515625 C 21.953125 -14.847656 22.375 -12.898438 22.375 -10.671875 Z M 22.375 -10.671875 "/></g></g></g><g fill="#454544" fill-opacity="1"><g transform="translate(509.366679, 195.838877)"><g><path d="M 8.734375 -4.09375 C 8.078125 -1.53125 6.960938 1.503906 5.390625 5.015625 L 1.203125 5.015625 C 2.023438 1.648438 2.664062 -1.53125 3.125 -4.53125 L 8.453125 -4.53125 Z M 8.734375 -4.09375 "/></g></g></g><g fill="#454544" fill-opacity="1"><g transform="translate(520.669287, 195.838877)"><g/></g></g><g fill="#454544" fill-opacity="1"><g transform="translate(530.792162, 195.838877)"><g><path d="M 3.5 0 L 3.5 -27.8125 L 9.40625 -27.8125 L 9.40625 0 Z M 3.5 0 "/></g></g></g><g fill="#454544" fill-opacity="1"><g transform="translate(543.693118, 195.838877)"><g/></g></g><g fill="#454544" fill-opacity="1"><g transform="translate(553.815993, 195.838877)"><g><path d="M 16.546875 0 L 15.4375 -2.890625 L 15.28125 -2.890625 C 14.300781 -1.660156 13.296875 -0.804688 12.265625 -0.328125 C 11.234375 0.140625 9.882812 0.375 8.21875 0.375 C 6.175781 0.375 4.566406 -0.207031 3.390625 -1.375 C 2.222656 -2.539062 1.640625 -4.203125 1.640625 -6.359375 C 1.640625 -8.617188 2.425781 -10.28125 4 -11.34375 C 5.582031 -12.414062 7.96875 -13.007812 11.15625 -13.125 L 14.84375 -13.25 L 14.84375 -14.171875 C 14.84375 -16.328125 13.738281 -17.40625 11.53125 -17.40625 C 9.832031 -17.40625 7.832031 -16.894531 5.53125 -15.875 L 3.609375 -19.78125 C 6.054688 -21.0625 8.773438 -21.703125 11.765625 -21.703125 C 14.617188 -21.703125 16.804688 -21.082031 18.328125 -19.84375 C 19.847656 -18.601562 20.609375 -16.710938 20.609375 -14.171875 L 20.609375 0 Z M 14.84375 -9.859375 L 12.59375 -9.78125 C 10.90625 -9.726562 9.648438 -9.421875 8.828125 -8.859375 C 8.003906 -8.304688 7.59375 -7.457031 7.59375 -6.3125 C 7.59375 -4.675781 8.53125 -3.859375 10.40625 -3.859375 C 11.75 -3.859375 12.820312 -4.242188 13.625 -5.015625 C 14.4375 -5.796875 14.84375 -6.828125 14.84375 -8.109375 Z M 14.84375 -9.859375 "/></g></g></g><g fill="#454544" fill-opacity="1"><g transform="translate(577.353584, 195.838877)"><g><path d="M 22.09375 0 L 16.28125 0 L 16.28125 -12.421875 C 16.28125 -13.960938 16.023438 -15.113281 15.515625 -15.875 C 15.003906 -16.644531 14.195312 -17.03125 13.09375 -17.03125 C 11.601562 -17.03125 10.519531 -16.484375 9.84375 -15.390625 C 9.175781 -14.296875 8.84375 -12.503906 8.84375 -10.015625 L 8.84375 0 L 3.046875 0 L 3.046875 -21.265625 L 7.484375 -21.265625 L 8.265625 -18.546875 L 8.578125 -18.546875 C 9.148438 -19.523438 9.972656 -20.289062 11.046875 -20.84375 C 12.128906 -21.394531 13.367188 -21.671875 14.765625 -21.671875 C 17.953125 -21.671875 20.109375 -20.628906 21.234375 -18.546875 L 21.75 -18.546875 C 22.320312 -19.535156 23.160156 -20.300781 24.265625 -20.84375 C 25.378906 -21.394531 26.632812 -21.671875 28.03125 -21.671875 C 30.4375 -21.671875 32.257812 -21.050781 33.5 -19.8125 C 34.738281 -18.582031 35.359375 -16.601562 35.359375 -13.875 L 35.359375 0 L 29.53125 0 L 29.53125 -12.421875 C 29.53125 -13.960938 29.269531 -15.113281 28.75 -15.875 C 28.238281 -16.644531 27.429688 -17.03125 26.328125 -17.03125 C 24.910156 -17.03125 23.847656 -16.519531 23.140625 -15.5 C 22.441406 -14.488281 22.09375 -12.878906 22.09375 -10.671875 Z M 22.09375 0 "/></g></g></g><g fill="#454544" fill-opacity="1"><g transform="translate(339.492218, 426.337838)"><g><path d="M 10.609375 0 L 9.890625 -1.859375 L 9.796875 -1.859375 C 9.171875 -1.066406 8.523438 -0.515625 7.859375 -0.203125 C 7.203125 0.0976562 6.335938 0.25 5.265625 0.25 C 3.960938 0.25 2.929688 -0.125 2.171875 -0.875 C 1.421875 -1.625 1.046875 -2.691406 1.046875 -4.078125 C 1.046875 -5.523438 1.550781 -6.59375 2.5625 -7.28125 C 3.582031 -7.96875 5.113281 -8.347656 7.15625 -8.421875 L 9.515625 -8.484375 L 9.515625 -9.09375 C 9.515625 -10.46875 8.804688 -11.15625 7.390625 -11.15625 C 6.304688 -11.15625 5.023438 -10.828125 3.546875 -10.171875 L 2.3125 -12.6875 C 3.882812 -13.507812 5.628906 -13.921875 7.546875 -13.921875 C 9.367188 -13.921875 10.769531 -13.519531 11.75 -12.71875 C 12.726562 -11.925781 13.21875 -10.71875 13.21875 -9.09375 L 13.21875 0 Z M 9.515625 -6.3125 L 8.078125 -6.265625 C 6.992188 -6.234375 6.1875 -6.035156 5.65625 -5.671875 C 5.132812 -5.316406 4.875 -4.773438 4.875 -4.046875 C 4.875 -2.992188 5.472656 -2.46875 6.671875 -2.46875 C 7.535156 -2.46875 8.222656 -2.71875 8.734375 -3.21875 C 9.253906 -3.71875 9.515625 -4.378906 9.515625 -5.203125 Z M 9.515625 -6.3125 "/></g></g></g><g fill="#454544" fill-opacity="1"><g transform="translate(354.582596, 426.337838)"><g/></g></g><g fill="#454544" fill-opacity="1"><g transform="translate(361.072554, 426.337838)"><g><path d="M 0.859375 6 C -0.0976562 6 -0.914062 5.898438 -1.59375 5.703125 L -1.59375 2.765625 C -1.03125 2.921875 -0.453125 3 0.140625 3 C 0.765625 3 1.222656 2.820312 1.515625 2.46875 C 1.804688 2.125 1.953125 1.609375 1.953125 0.921875 L 1.953125 -13.640625 L 5.671875 -13.640625 L 5.671875 1.46875 C 5.671875 2.914062 5.25 4.03125 4.40625 4.8125 C 3.570312 5.601562 2.390625 6 0.859375 6 Z M 1.796875 -17.171875 C 1.796875 -18.378906 2.46875 -18.984375 3.8125 -18.984375 C 5.164062 -18.984375 5.84375 -18.378906 5.84375 -17.171875 C 5.84375 -16.585938 5.671875 -16.132812 5.328125 -15.8125 C 4.992188 -15.488281 4.488281 -15.328125 3.8125 -15.328125 C 2.46875 -15.328125 1.796875 -15.941406 1.796875 -17.171875 Z M 1.796875 -17.171875 "/></g></g></g><g fill="#454544" fill-opacity="1"><g transform="translate(368.697041, 426.337838)"><g><path d="M 11.609375 0 L 11.109375 -1.75 L 10.921875 -1.75 C 10.523438 -1.113281 9.957031 -0.617188 9.21875 -0.265625 C 8.488281 0.078125 7.65625 0.25 6.71875 0.25 C 5.113281 0.25 3.90625 -0.175781 3.09375 -1.03125 C 2.28125 -1.894531 1.875 -3.132812 1.875 -4.75 L 1.875 -13.640625 L 5.59375 -13.640625 L 5.59375 -5.671875 C 5.59375 -4.691406 5.769531 -3.953125 6.125 -3.453125 C 6.476562 -2.960938 7.035156 -2.71875 7.796875 -2.71875 C 8.835938 -2.71875 9.585938 -3.066406 10.046875 -3.765625 C 10.515625 -4.460938 10.75 -5.613281 10.75 -7.21875 L 10.75 -13.640625 L 14.46875 -13.640625 L 14.46875 0 Z M 11.609375 0 "/></g></g></g><g fill="#454544" fill-opacity="1"><g transform="translate(385.117124, 426.337838)"><g><path d="M 14.546875 0 L 10.828125 0 L 10.828125 -7.96875 C 10.828125 -8.945312 10.648438 -9.679688 10.296875 -10.171875 C 9.941406 -10.671875 9.382812 -10.921875 8.625 -10.921875 C 7.582031 -10.921875 6.828125 -10.570312 6.359375 -9.875 C 5.898438 -9.175781 5.671875 -8.023438 5.671875 -6.421875 L 5.671875 0 L 1.953125 0 L 1.953125 -13.640625 L 4.796875 -13.640625 L 5.296875 -11.890625 L 5.5 -11.890625 C 5.914062 -12.546875 6.488281 -13.039062 7.21875 -13.375 C 7.945312 -13.71875 8.773438 -13.890625 9.703125 -13.890625 C 11.285156 -13.890625 12.488281 -13.460938 13.3125 -12.609375 C 14.132812 -11.753906 14.546875 -10.515625 14.546875 -8.890625 Z M 14.546875 0 "/></g></g></g><g fill="#454544" fill-opacity="1"><g transform="translate(401.537206, 426.337838)"><g><path d="M 1.796875 -17.171875 C 1.796875 -18.378906 2.46875 -18.984375 3.8125 -18.984375 C 5.164062 -18.984375 5.84375 -18.378906 5.84375 -17.171875 C 5.84375 -16.585938 5.671875 -16.132812 5.328125 -15.8125 C 4.992188 -15.488281 4.488281 -15.328125 3.8125 -15.328125 C 2.46875 -15.328125 1.796875 -15.941406 1.796875 -17.171875 Z M 5.671875 0 L 1.953125 0 L 1.953125 -13.640625 L 5.671875 -13.640625 Z M 5.671875 0 "/></g></g></g><g fill="#454544" fill-opacity="1"><g transform="translate(409.161693, 426.337838)"><g><path d="M 4.921875 -6.84375 C 4.921875 -5.488281 5.140625 -4.46875 5.578125 -3.78125 C 6.023438 -3.09375 6.75 -2.75 7.75 -2.75 C 8.738281 -2.75 9.453125 -3.09375 9.890625 -3.78125 C 10.328125 -4.46875 10.546875 -5.488281 10.546875 -6.84375 C 10.546875 -8.195312 10.320312 -9.207031 9.875 -9.875 C 9.4375 -10.550781 8.71875 -10.890625 7.71875 -10.890625 C 6.726562 -10.890625 6.015625 -10.550781 5.578125 -9.875 C 5.140625 -9.207031 4.921875 -8.195312 4.921875 -6.84375 Z M 14.34375 -6.84375 C 14.34375 -4.625 13.753906 -2.882812 12.578125 -1.625 C 11.410156 -0.375 9.785156 0.25 7.703125 0.25 C 6.390625 0.25 5.234375 -0.0351562 4.234375 -0.609375 C 3.234375 -1.179688 2.460938 -2.003906 1.921875 -3.078125 C 1.390625 -4.160156 1.125 -5.414062 1.125 -6.84375 C 1.125 -9.070312 1.703125 -10.800781 2.859375 -12.03125 C 4.023438 -13.269531 5.660156 -13.890625 7.765625 -13.890625 C 9.078125 -13.890625 10.234375 -13.601562 11.234375 -13.03125 C 12.234375 -12.46875 13 -11.648438 13.53125 -10.578125 C 14.070312 -9.515625 14.34375 -8.269531 14.34375 -6.84375 Z M 14.34375 -6.84375 "/></g></g></g><g fill="#454544" fill-opacity="1"><g transform="translate(424.63024, 426.337838)"><g><path d="M 9.5625 -13.890625 C 10.070312 -13.890625 10.492188 -13.851562 10.828125 -13.78125 L 10.546875 -10.296875 C 10.242188 -10.378906 9.875 -10.421875 9.4375 -10.421875 C 8.25 -10.421875 7.320312 -10.113281 6.65625 -9.5 C 6 -8.894531 5.671875 -8.039062 5.671875 -6.9375 L 5.671875 0 L 1.953125 0 L 1.953125 -13.640625 L 4.765625 -13.640625 L 5.3125 -11.34375 L 5.5 -11.34375 C 5.925781 -12.113281 6.5 -12.726562 7.21875 -13.1875 C 7.9375 -13.65625 8.71875 -13.890625 9.5625 -13.890625 Z M 9.5625 -13.890625 "/></g></g></g><g fill="#454544" fill-opacity="1"><g transform="translate(435.975467, 426.337838)"><g/></g></g><g fill="#454544" fill-opacity="1"><g transform="translate(442.465426, 426.337838)"><g><path d="M 11.46875 -4.046875 C 11.46875 -2.648438 10.976562 -1.582031 10 -0.84375 C 9.03125 -0.113281 7.578125 0.25 5.640625 0.25 C 4.648438 0.25 3.804688 0.179688 3.109375 0.046875 C 2.410156 -0.0859375 1.753906 -0.285156 1.140625 -0.546875 L 1.140625 -3.625 C 1.835938 -3.300781 2.617188 -3.023438 3.484375 -2.796875 C 4.347656 -2.578125 5.109375 -2.46875 5.765625 -2.46875 C 7.117188 -2.46875 7.796875 -2.859375 7.796875 -3.640625 C 7.796875 -3.941406 7.707031 -4.179688 7.53125 -4.359375 C 7.351562 -4.546875 7.039062 -4.753906 6.59375 -4.984375 C 6.15625 -5.210938 5.570312 -5.484375 4.84375 -5.796875 C 3.789062 -6.234375 3.019531 -6.640625 2.53125 -7.015625 C 2.039062 -7.390625 1.679688 -7.816406 1.453125 -8.296875 C 1.234375 -8.785156 1.125 -9.382812 1.125 -10.09375 C 1.125 -11.300781 1.59375 -12.234375 2.53125 -12.890625 C 3.46875 -13.554688 4.800781 -13.890625 6.53125 -13.890625 C 8.164062 -13.890625 9.765625 -13.535156 11.328125 -12.828125 L 10.203125 -10.140625 C 9.515625 -10.429688 8.875 -10.671875 8.28125 -10.859375 C 7.6875 -11.046875 7.082031 -11.140625 6.46875 -11.140625 C 5.363281 -11.140625 4.8125 -10.84375 4.8125 -10.25 C 4.8125 -9.914062 4.988281 -9.625 5.34375 -9.375 C 5.695312 -9.132812 6.472656 -8.773438 7.671875 -8.296875 C 8.734375 -7.867188 9.515625 -7.46875 10.015625 -7.09375 C 10.515625 -6.71875 10.878906 -6.285156 11.109375 -5.796875 C 11.347656 -5.304688 11.46875 -4.722656 11.46875 -4.046875 Z M 11.46875 -4.046875 "/></g></g></g><g fill="#454544" fill-opacity="1"><g transform="translate(454.88418, 426.337838)"><g><path d="M 4.921875 -6.84375 C 4.921875 -5.488281 5.140625 -4.46875 5.578125 -3.78125 C 6.023438 -3.09375 6.75 -2.75 7.75 -2.75 C 8.738281 -2.75 9.453125 -3.09375 9.890625 -3.78125 C 10.328125 -4.46875 10.546875 -5.488281 10.546875 -6.84375 C 10.546875 -8.195312 10.320312 -9.207031 9.875 -9.875 C 9.4375 -10.550781 8.71875 -10.890625 7.71875 -10.890625 C 6.726562 -10.890625 6.015625 -10.550781 5.578125 -9.875 C 5.140625 -9.207031 4.921875 -8.195312 4.921875 -6.84375 Z M 14.34375 -6.84375 C 14.34375 -4.625 13.753906 -2.882812 12.578125 -1.625 C 11.410156 -0.375 9.785156 0.25 7.703125 0.25 C 6.390625 0.25 5.234375 -0.0351562 4.234375 -0.609375 C 3.234375 -1.179688 2.460938 -2.003906 1.921875 -3.078125 C 1.390625 -4.160156 1.125 -5.414062 1.125 -6.84375 C 1.125 -9.070312 1.703125 -10.800781 2.859375 -12.03125 C 4.023438 -13.269531 5.660156 -13.890625 7.765625 -13.890625 C 9.078125 -13.890625 10.234375 -13.601562 11.234375 -13.03125 C 12.234375 -12.46875 13 -11.648438 13.53125 -10.578125 C 14.070312 -9.515625 14.34375 -8.269531 14.34375 -6.84375 Z M 14.34375 -6.84375 "/></g></g></g><g fill="#454544" fill-opacity="1"><g transform="translate(470.352727, 426.337838)"><g><path d="M 9.484375 -10.84375 L 6.265625 -10.84375 L 6.265625 0 L 2.546875 0 L 2.546875 -10.84375 L 0.5 -10.84375 L 0.5 -12.640625 L 2.546875 -13.640625 L 2.546875 -14.640625 C 2.546875 -16.191406 2.925781 -17.320312 3.6875 -18.03125 C 4.457031 -18.75 5.6875 -19.109375 7.375 -19.109375 C 8.65625 -19.109375 9.796875 -18.921875 10.796875 -18.546875 L 9.84375 -15.8125 C 9.09375 -16.050781 8.398438 -16.171875 7.765625 -16.171875 C 7.242188 -16.171875 6.863281 -16.007812 6.625 -15.6875 C 6.382812 -15.375 6.265625 -14.976562 6.265625 -14.5 L 6.265625 -13.640625 L 9.484375 -13.640625 Z M 9.484375 -10.84375 "/></g></g></g><g fill="#454544" fill-opacity="1"><g transform="translate(480.026675, 426.337838)"><g><path d="M 7.703125 -2.71875 C 8.347656 -2.71875 9.128906 -2.859375 10.046875 -3.140625 L 10.046875 -0.375 C 9.117188 0.0390625 7.976562 0.25 6.625 0.25 C 5.132812 0.25 4.050781 -0.125 3.375 -0.875 C 2.695312 -1.632812 2.359375 -2.765625 2.359375 -4.265625 L 2.359375 -10.84375 L 0.578125 -10.84375 L 0.578125 -12.421875 L 2.625 -13.65625 L 3.703125 -16.546875 L 6.078125 -16.546875 L 6.078125 -13.640625 L 9.890625 -13.640625 L 9.890625 -10.84375 L 6.078125 -10.84375 L 6.078125 -4.265625 C 6.078125 -3.742188 6.222656 -3.351562 6.515625 -3.09375 C 6.816406 -2.84375 7.210938 -2.71875 7.703125 -2.71875 Z M 7.703125 -2.71875 "/></g></g></g><g fill="#454544" fill-opacity="1"><g transform="translate(490.871742, 426.337838)"><g><path d="M 13.15625 0 L 12.109375 -4.765625 L 10.703125 -10.796875 L 10.609375 -10.796875 L 8.125 0 L 4.125 0 L 0.25 -13.640625 L 3.953125 -13.640625 L 5.53125 -7.59375 C 5.78125 -6.519531 6.035156 -5.03125 6.296875 -3.125 L 6.375 -3.125 C 6.40625 -3.738281 6.546875 -4.71875 6.796875 -6.0625 L 6.984375 -7.09375 L 8.671875 -13.640625 L 12.765625 -13.640625 L 14.375 -7.09375 C 14.40625 -6.914062 14.453125 -6.648438 14.515625 -6.296875 C 14.585938 -5.953125 14.65625 -5.582031 14.71875 -5.1875 C 14.789062 -4.789062 14.851562 -4.40625 14.90625 -4.03125 C 14.957031 -3.65625 14.988281 -3.351562 15 -3.125 L 15.0625 -3.125 C 15.132812 -3.707031 15.265625 -4.507812 15.453125 -5.53125 C 15.640625 -6.550781 15.773438 -7.238281 15.859375 -7.59375 L 17.5 -13.640625 L 21.140625 -13.640625 L 17.21875 0 Z M 13.15625 0 "/></g></g></g><g fill="#454544" fill-opacity="1"><g transform="translate(512.256893, 426.337838)"><g><path d="M 10.609375 0 L 9.890625 -1.859375 L 9.796875 -1.859375 C 9.171875 -1.066406 8.523438 -0.515625 7.859375 -0.203125 C 7.203125 0.0976562 6.335938 0.25 5.265625 0.25 C 3.960938 0.25 2.929688 -0.125 2.171875 -0.875 C 1.421875 -1.625 1.046875 -2.691406 1.046875 -4.078125 C 1.046875 -5.523438 1.550781 -6.59375 2.5625 -7.28125 C 3.582031 -7.96875 5.113281 -8.347656 7.15625 -8.421875 L 9.515625 -8.484375 L 9.515625 -9.09375 C 9.515625 -10.46875 8.804688 -11.15625 7.390625 -11.15625 C 6.304688 -11.15625 5.023438 -10.828125 3.546875 -10.171875 L 2.3125 -12.6875 C 3.882812 -13.507812 5.628906 -13.921875 7.546875 -13.921875 C 9.367188 -13.921875 10.769531 -13.519531 11.75 -12.71875 C 12.726562 -11.925781 13.21875 -10.71875 13.21875 -9.09375 L 13.21875 0 Z M 9.515625 -6.3125 L 8.078125 -6.265625 C 6.992188 -6.234375 6.1875 -6.035156 5.65625 -5.671875 C 5.132812 -5.316406 4.875 -4.773438 4.875 -4.046875 C 4.875 -2.992188 5.472656 -2.46875 6.671875 -2.46875 C 7.535156 -2.46875 8.222656 -2.71875 8.734375 -3.21875 C 9.253906 -3.71875 9.515625 -4.378906 9.515625 -5.203125 Z M 9.515625 -6.3125 "/></g></g></g><g fill="#454544" fill-opacity="1"><g transform="translate(527.347271, 426.337838)"><g><path d="M 9.5625 -13.890625 C 10.070312 -13.890625 10.492188 -13.851562 10.828125 -13.78125 L 10.546875 -10.296875 C 10.242188 -10.378906 9.875 -10.421875 9.4375 -10.421875 C 8.25 -10.421875 7.320312 -10.113281 6.65625 -9.5 C 6 -8.894531 5.671875 -8.039062 5.671875 -6.9375 L 5.671875 0 L 1.953125 0 L 1.953125 -13.640625 L 4.765625 -13.640625 L 5.3125 -11.34375 L 5.5 -11.34375 C 5.925781 -12.113281 6.5 -12.726562 7.21875 -13.1875 C 7.9375 -13.65625 8.71875 -13.890625 9.5625 -13.890625 Z M 9.5625 -13.890625 "/></g></g></g><g fill="#454544" fill-opacity="1"><g transform="translate(538.692499, 426.337838)"><g><path d="M 7.59375 -11.25 C 6.8125 -11.25 6.195312 -11 5.75 -10.5 C 5.300781 -10 5.046875 -9.289062 4.984375 -8.375 L 10.203125 -8.375 C 10.179688 -9.289062 9.9375 -10 9.46875 -10.5 C 9.007812 -11 8.382812 -11.25 7.59375 -11.25 Z M 8.125 0.25 C 5.925781 0.25 4.207031 -0.351562 2.96875 -1.5625 C 1.738281 -2.78125 1.125 -4.5 1.125 -6.71875 C 1.125 -9.007812 1.691406 -10.773438 2.828125 -12.015625 C 3.972656 -13.265625 5.554688 -13.890625 7.578125 -13.890625 C 9.503906 -13.890625 11.003906 -13.335938 12.078125 -12.234375 C 13.148438 -11.140625 13.6875 -9.628906 13.6875 -7.703125 L 13.6875 -5.890625 L 4.890625 -5.890625 C 4.929688 -4.835938 5.242188 -4.015625 5.828125 -3.421875 C 6.410156 -2.828125 7.234375 -2.53125 8.296875 -2.53125 C 9.117188 -2.53125 9.894531 -2.613281 10.625 -2.78125 C 11.351562 -2.945312 12.117188 -3.21875 12.921875 -3.59375 L 12.921875 -0.71875 C 12.265625 -0.394531 11.566406 -0.15625 10.828125 0 C 10.085938 0.164062 9.1875 0.25 8.125 0.25 Z M 8.125 0.25 "/></g></g></g><g fill="#454544" fill-opacity="1"><g transform="translate(553.453505, 426.337838)"><g/></g></g><g fill="#454544" fill-opacity="1"><g transform="translate(559.943464, 426.337838)"><g><path d="M 6.265625 0.25 C 4.671875 0.25 3.414062 -0.367188 2.5 -1.609375 C 1.582031 -2.859375 1.125 -4.585938 1.125 -6.796875 C 1.125 -9.035156 1.585938 -10.773438 2.515625 -12.015625 C 3.453125 -13.265625 4.738281 -13.890625 6.375 -13.890625 C 8.082031 -13.890625 9.390625 -13.222656 10.296875 -11.890625 L 10.421875 -11.890625 C 10.234375 -12.910156 10.140625 -13.816406 10.140625 -14.609375 L 10.140625 -18.984375 L 13.875 -18.984375 L 13.875 0 L 11.015625 0 L 10.296875 -1.765625 L 10.140625 -1.765625 C 9.296875 -0.421875 8.003906 0.25 6.265625 0.25 Z M 7.578125 -2.71875 C 8.523438 -2.71875 9.21875 -2.992188 9.65625 -3.546875 C 10.101562 -4.097656 10.347656 -5.039062 10.390625 -6.375 L 10.390625 -6.765625 C 10.390625 -8.234375 10.164062 -9.285156 9.71875 -9.921875 C 9.269531 -10.554688 8.535156 -10.875 7.515625 -10.875 C 6.679688 -10.875 6.035156 -10.519531 5.578125 -9.8125 C 5.117188 -9.113281 4.890625 -8.09375 4.890625 -6.75 C 4.890625 -5.40625 5.117188 -4.394531 5.578125 -3.71875 C 6.046875 -3.050781 6.710938 -2.71875 7.578125 -2.71875 Z M 7.578125 -2.71875 "/></g></g></g><g fill="#454544" fill-opacity="1"><g transform="translate(575.753587, 426.337838)"><g><path d="M 7.59375 -11.25 C 6.8125 -11.25 6.195312 -11 5.75 -10.5 C 5.300781 -10 5.046875 -9.289062 4.984375 -8.375 L 10.203125 -8.375 C 10.179688 -9.289062 9.9375 -10 9.46875 -10.5 C 9.007812 -11 8.382812 -11.25 7.59375 -11.25 Z M 8.125 0.25 C 5.925781 0.25 4.207031 -0.351562 2.96875 -1.5625 C 1.738281 -2.78125 1.125 -4.5 1.125 -6.71875 C 1.125 -9.007812 1.691406 -10.773438 2.828125 -12.015625 C 3.972656 -13.265625 5.554688 -13.890625 7.578125 -13.890625 C 9.503906 -13.890625 11.003906 -13.335938 12.078125 -12.234375 C 13.148438 -11.140625 13.6875 -9.628906 13.6875 -7.703125 L 13.6875 -5.890625 L 4.890625 -5.890625 C 4.929688 -4.835938 5.242188 -4.015625 5.828125 -3.421875 C 6.410156 -2.828125 7.234375 -2.53125 8.296875 -2.53125 C 9.117188 -2.53125 9.894531 -2.613281 10.625 -2.78125 C 11.351562 -2.945312 12.117188 -3.21875 12.921875 -3.59375 L 12.921875 -0.71875 C 12.265625 -0.394531 11.566406 -0.15625 10.828125 0 C 10.085938 0.164062 9.1875 0.25 8.125 0.25 Z M 8.125 0.25 "/></g></g></g><g fill="#454544" fill-opacity="1"><g transform="translate(590.514594, 426.337838)"><g><path d="M 5.203125 0 L 0 -13.640625 L 3.890625 -13.640625 L 6.53125 -5.875 C 6.820312 -4.882812 7.003906 -3.953125 7.078125 -3.078125 L 7.15625 -3.078125 C 7.1875 -3.859375 7.367188 -4.789062 7.703125 -5.875 L 10.328125 -13.640625 L 14.21875 -13.640625 L 9.015625 0 Z M 5.203125 0 "/></g></g></g><g fill="#454544" fill-opacity="1"><g transform="translate(604.726621, 426.337838)"><g><path d="M 7.59375 -11.25 C 6.8125 -11.25 6.195312 -11 5.75 -10.5 C 5.300781 -10 5.046875 -9.289062 4.984375 -8.375 L 10.203125 -8.375 C 10.179688 -9.289062 9.9375 -10 9.46875 -10.5 C 9.007812 -11 8.382812 -11.25 7.59375 -11.25 Z M 8.125 0.25 C 5.925781 0.25 4.207031 -0.351562 2.96875 -1.5625 C 1.738281 -2.78125 1.125 -4.5 1.125 -6.71875 C 1.125 -9.007812 1.691406 -10.773438 2.828125 -12.015625 C 3.972656 -13.265625 5.554688 -13.890625 7.578125 -13.890625 C 9.503906 -13.890625 11.003906 -13.335938 12.078125 -12.234375 C 13.148438 -11.140625 13.6875 -9.628906 13.6875 -7.703125 L 13.6875 -5.890625 L 4.890625 -5.890625 C 4.929688 -4.835938 5.242188 -4.015625 5.828125 -3.421875 C 6.410156 -2.828125 7.234375 -2.53125 8.296875 -2.53125 C 9.117188 -2.53125 9.894531 -2.613281 10.625 -2.78125 C 11.351562 -2.945312 12.117188 -3.21875 12.921875 -3.59375 L 12.921875 -0.71875 C 12.265625 -0.394531 11.566406 -0.15625 10.828125 0 C 10.085938 0.164062 9.1875 0.25 8.125 0.25 Z M 8.125 0.25 "/></g></g></g><g fill="#454544" fill-opacity="1"><g transform="translate(619.487604, 426.337838)"><g><path d="M 5.671875 0 L 1.953125 0 L 1.953125 -18.984375 L 5.671875 -18.984375 Z M 5.671875 0 "/></g></g></g><g fill="#454544" fill-opacity="1"><g transform="translate(627.112103, 426.337838)"><g><path d="M 4.921875 -6.84375 C 4.921875 -5.488281 5.140625 -4.46875 5.578125 -3.78125 C 6.023438 -3.09375 6.75 -2.75 7.75 -2.75 C 8.738281 -2.75 9.453125 -3.09375 9.890625 -3.78125 C 10.328125 -4.46875 10.546875 -5.488281 10.546875 -6.84375 C 10.546875 -8.195312 10.320312 -9.207031 9.875 -9.875 C 9.4375 -10.550781 8.71875 -10.890625 7.71875 -10.890625 C 6.726562 -10.890625 6.015625 -10.550781 5.578125 -9.875 C 5.140625 -9.207031 4.921875 -8.195312 4.921875 -6.84375 Z M 14.34375 -6.84375 C 14.34375 -4.625 13.753906 -2.882812 12.578125 -1.625 C 11.410156 -0.375 9.785156 0.25 7.703125 0.25 C 6.390625 0.25 5.234375 -0.0351562 4.234375 -0.609375 C 3.234375 -1.179688 2.460938 -2.003906 1.921875 -3.078125 C 1.390625 -4.160156 1.125 -5.414062 1.125 -6.84375 C 1.125 -9.070312 1.703125 -10.800781 2.859375 -12.03125 C 4.023438 -13.269531 5.660156 -13.890625 7.765625 -13.890625 C 9.078125 -13.890625 10.234375 -13.601562 11.234375 -13.03125 C 12.234375 -12.46875 13 -11.648438 13.53125 -10.578125 C 14.070312 -9.515625 14.34375 -8.269531 14.34375 -6.84375 Z M 14.34375 -6.84375 "/></g></g></g><g fill="#454544" fill-opacity="1"><g transform="translate(642.58065, 426.337838)"><g><path d="M 9.4375 0.25 C 7.832031 0.25 6.578125 -0.332031 5.671875 -1.5 L 5.484375 -1.5 C 5.609375 -0.363281 5.671875 0.289062 5.671875 0.46875 L 5.671875 6 L 1.953125 6 L 1.953125 -13.640625 L 4.984375 -13.640625 L 5.5 -11.875 L 5.671875 -11.875 C 6.546875 -13.21875 7.835938 -13.890625 9.546875 -13.890625 C 11.148438 -13.890625 12.40625 -13.265625 13.3125 -12.015625 C 14.226562 -10.773438 14.6875 -9.050781 14.6875 -6.84375 C 14.6875 -5.382812 14.472656 -4.117188 14.046875 -3.046875 C 13.617188 -1.972656 13.007812 -1.15625 12.21875 -0.59375 C 11.4375 -0.03125 10.507812 0.25 9.4375 0.25 Z M 8.34375 -10.921875 C 7.425781 -10.921875 6.753906 -10.632812 6.328125 -10.0625 C 5.910156 -9.5 5.691406 -8.566406 5.671875 -7.265625 L 5.671875 -6.875 C 5.671875 -5.40625 5.890625 -4.351562 6.328125 -3.71875 C 6.765625 -3.082031 7.453125 -2.765625 8.390625 -2.765625 C 10.054688 -2.765625 10.890625 -4.140625 10.890625 -6.890625 C 10.890625 -8.234375 10.679688 -9.238281 10.265625 -9.90625 C 9.859375 -10.582031 9.21875 -10.921875 8.34375 -10.921875 Z M 8.34375 -10.921875 "/></g></g></g><g fill="#454544" fill-opacity="1"><g transform="translate(658.390774, 426.337838)"><g><path d="M 7.59375 -11.25 C 6.8125 -11.25 6.195312 -11 5.75 -10.5 C 5.300781 -10 5.046875 -9.289062 4.984375 -8.375 L 10.203125 -8.375 C 10.179688 -9.289062 9.9375 -10 9.46875 -10.5 C 9.007812 -11 8.382812 -11.25 7.59375 -11.25 Z M 8.125 0.25 C 5.925781 0.25 4.207031 -0.351562 2.96875 -1.5625 C 1.738281 -2.78125 1.125 -4.5 1.125 -6.71875 C 1.125 -9.007812 1.691406 -10.773438 2.828125 -12.015625 C 3.972656 -13.265625 5.554688 -13.890625 7.578125 -13.890625 C 9.503906 -13.890625 11.003906 -13.335938 12.078125 -12.234375 C 13.148438 -11.140625 13.6875 -9.628906 13.6875 -7.703125 L 13.6875 -5.890625 L 4.890625 -5.890625 C 4.929688 -4.835938 5.242188 -4.015625 5.828125 -3.421875 C 6.410156 -2.828125 7.234375 -2.53125 8.296875 -2.53125 C 9.117188 -2.53125 9.894531 -2.613281 10.625 -2.78125 C 11.351562 -2.945312 12.117188 -3.21875 12.921875 -3.59375 L 12.921875 -0.71875 C 12.265625 -0.394531 11.566406 -0.15625 10.828125 0 C 10.085938 0.164062 9.1875 0.25 8.125 0.25 Z M 8.125 0.25 "/></g></g></g><g fill="#454544" fill-opacity="1"><g transform="translate(673.15178, 426.337838)"><g><path d="M 9.5625 -13.890625 C 10.070312 -13.890625 10.492188 -13.851562 10.828125 -13.78125 L 10.546875 -10.296875 C 10.242188 -10.378906 9.875 -10.421875 9.4375 -10.421875 C 8.25 -10.421875 7.320312 -10.113281 6.65625 -9.5 C 6 -8.894531 5.671875 -8.039062 5.671875 -6.9375 L 5.671875 0 L 1.953125 0 L 1.953125 -13.640625 L 4.765625 -13.640625 L 5.3125 -11.34375 L 5.5 -11.34375 C 5.925781 -12.113281 6.5 -12.726562 7.21875 -13.1875 C 7.9375 -13.65625 8.71875 -13.890625 9.5625 -13.890625 Z M 9.5625 -13.890625 "/></g></g></g></svg>