<svg xmlns="http://www.w3.org/2000/svg" xmlns:xlink="http://www.w3.org/1999/xlink" width="500" zoomAndPan="magnify" viewBox="0 0 375 374.999991" height="500" preserveAspectRatio="xMidYMid meet" version="1.0"><defs><g/></defs><path stroke-linecap="butt" transform="matrix(2.680914, 0, 0, 2.680914, 11.041941, 315.900008)" fill="none" stroke-linejoin="miter" d="M 0.000383338 5.000041 L 84.43259 5.000041 " stroke="#454544" stroke-width="10" stroke-opacity="1" stroke-miterlimit="4"/><path stroke-linecap="butt" transform="matrix(0, 2.680914, -2.680914, 0, 37.837334, 113.602939)" fill="none" stroke-linejoin="miter" d="M -0.000513422 4.999691 L 82.463206 4.999691 " stroke="#454544" stroke-width="10" stroke-opacity="1" stroke-miterlimit="4"/><path stroke-linecap="butt" transform="matrix(-2.680914, 0, 0, -2.680914, 363.947793, 59.093288)" fill="none" stroke-linejoin="miter" d="M -0.000531665 5.000455 L 84.433132 5.000455 " stroke="#454544" stroke-width="10" stroke-opacity="1" stroke-miterlimit="4"/><path stroke-linecap="butt" transform="matrix(0, -2.680914, 2.680914, 0, 337.152405, 261.390364)" fill="none" stroke-linejoin="miter" d="M -0.0000971925 5.000604 L 82.463622 5.000604 " stroke="#454544" stroke-width="10" stroke-opacity="1" stroke-miterlimit="4"/><g fill="#454544" fill-opacity="1"><g transform="translate(76.070983, 262.589012)"><g><path d="M 1.53125 -126.375 L 1.53125 -157.96875 L 112.578125 -157.96875 L 112.578125 -126.375 L 75.0625 -126.375 L 75.0625 0 L 39.0625 0 L 39.0625 -126.375 Z M 1.53125 -126.375 "/></g></g></g><g fill="#454544" fill-opacity="1"><g transform="translate(173.889526, 262.589012)"><g><path d="M 11.484375 -157.96875 L 69.125 -157.96875 C 85.207031 -157.96875 98.222656 -153.816406 108.171875 -145.515625 C 118.128906 -137.222656 123.109375 -125.160156 123.109375 -109.328125 C 123.109375 -93.503906 118.066406 -81.09375 107.984375 -72.09375 C 97.898438 -63.09375 84.945312 -58.59375 69.125 -58.59375 L 47.484375 -58.59375 L 47.484375 0 L 11.484375 0 Z M 47.484375 -87.3125 L 57.625 -87.3125 C 65.664062 -87.3125 72.269531 -88.9375 77.4375 -92.1875 C 82.613281 -95.445312 85.203125 -100.78125 85.203125 -108.1875 C 85.203125 -115.707031 82.613281 -121.09375 77.4375 -124.34375 C 72.269531 -127.601562 65.664062 -129.234375 57.625 -129.234375 L 47.484375 -129.234375 Z M 47.484375 -87.3125 "/></g></g></g></svg>